<?xml version="1.0" encoding="UTF-8" standalone="no"?>
<svg
   viewBox="0 0 150 100"
   version="1.1"
   id="svg312"
   sodipodi:docname="logo.svg"
   width="150"
   height="100"
   inkscape:version="1.2.2 (b0a8486541, 2022-12-01)"
   xml:space="preserve"
   xmlns:inkscape="http://www.inkscape.org/namespaces/inkscape"
   xmlns:sodipodi="http://sodipodi.sourceforge.net/DTD/sodipodi-0.dtd"
   xmlns="http://www.w3.org/2000/svg"
   xmlns:svg="http://www.w3.org/2000/svg"><defs
     id="defs316"><inkscape:path-effect
       effect="envelope"
       id="path-effect7830"
       is_visible="true"
       lpeversion="1"
       yy="true"
       xx="true"
       bendpath1="m 68.128404,101.09649 c 4.50226,0.59846 9.679044,0.4911 13.743189,0"
       bendpath2="m 81.871593,101.09649 v 3.74367"
       bendpath3="m 68.128404,104.84016 c 5.018533,0.258 8.51876,0.34036 13.743189,0"
       bendpath4="m 68.128404,101.09649 v 3.74367"
       bendpath1-nodetypes="cc"
       bendpath3-nodetypes="cc" /><inkscape:path-effect
       effect="envelope"
       id="path-effect6990"
       is_visible="true"
       lpeversion="1"
       yy="true"
       xx="true"
       bendpath1="m -118.39494,107.61489 c 46.622898,12.24726 201.731323,10.47494 244.00372,1.24982"
       bendpath2="m 125.60878,110.01389 v 28"
       bendpath3="m -118.39494,138.01389 c 38.14957,8.36405 205.383999,8.41281 244.00372,0"
       bendpath4="m -118.39494,110.01389 v 28"
       bendpath1-nodetypes="cc"
       bendpath3-nodetypes="cc" /><inkscape:path-effect
       effect="fillet_chamfer"
       id="path-effect1861"
       is_visible="true"
       lpeversion="1"
       nodesatellites_param="F,0,0,1,0,20,0,1 @ F,0,0,1,0,20,0,1 @ F,0,0,1,0,20,0,1 @ F,0,0,1,0,20,0,1 @ F,0,0,1,0,20,0,1 @ F,0,0,1,0,20,0,1"
       unit="px"
       method="auto"
       mode="F"
       radius="20"
       chamfer_steps="1"
       flexible="false"
       use_knot_distance="true"
       apply_no_radius="true"
       apply_with_radius="true"
       only_selected="false"
       hide_knots="false" /><filter
       inkscape:collect="always"
       style="color-interpolation-filters:sRGB"
       id="filter1806"
       x="-0.014664688"
       y="-0.10487555"
       width="1.0293064"
       height="1.2053917"><feGaussianBlur
         inkscape:collect="always"
         stdDeviation="0.96734753"
         id="feGaussianBlur1808" /></filter></defs><sodipodi:namedview
     id="namedview314"
     pagecolor="#c9c9c9"
     bordercolor="#666666"
     borderopacity="1.0"
     inkscape:showpageshadow="2"
     inkscape:pageopacity="0"
     inkscape:pagecheckerboard="0"
     inkscape:deskcolor="#bfbfbf"
     showgrid="false"
     inkscape:zoom="4.8714355"
     inkscape:cx="63.738912"
     inkscape:cy="52.345966"
     inkscape:window-width="1916"
     inkscape:window-height="1035"
     inkscape:window-x="0"
     inkscape:window-y="18"
     inkscape:window-maximized="1"
     inkscape:current-layer="svg312" /><path
     style="fill:none;fill-opacity:1;stroke:#a6a6a6;stroke-width:1.2548;stroke-linecap:butt;stroke-linejoin:miter;stroke-dasharray:none;stroke-opacity:1"
     d="m 10.043866,45.48954 c -0.2583212,23.979192 -0.7471417,22.8067 6.355395,28.541902 2.751794,2.222036 6.774331,4.213812 12.842542,5.54354 11.028203,2.416611 30.102822,2.783477 45.673381,2.85538 21.43426,0.09898 47.783916,-0.821889 57.728466,-6.493739 1.37484,-0.784136 3.38305,-2.077344 4.05855,-2.63453 4.52443,-3.731957 3.13157,-6.504718 2.79265,-28.445395 -24.74992,1.822464 -103.816299,-2.20262 -129.450984,0.632842 z"
     id="path24454-36"
     sodipodi:nodetypes="cssssscc" /><path
     style="fill:#d5d5d5;fill-opacity:1;stroke:none;stroke-width:1px;stroke-linecap:butt;stroke-linejoin:miter;stroke-opacity:1"
     d="m 9.9038472,42.523546 c -0.23866,27.14296 -1.4399115,24.395984 5.1019428,30.171656 6.572466,5.802697 17.344985,7.762837 29.910865,8.608087 9.447591,0.6355 20.001564,0.78265 30.031706,0.67067 18.39915,-0.20541 49.347539,1.38848 61.471109,-8.792875 5.71119,-4.796246 3.61883,-6.620625 3.3877,-31.388025 C 125.12667,26.487888 100.75002,18.347816 74.840271,18.256131 48.930531,18.164451 26.131657,28.917202 9.9038472,42.523546 Z"
     id="path24454-3"
     sodipodi:nodetypes="cssssczc" /><path
     style="fill:#ededed;fill-opacity:1;stroke:none;stroke-width:1px;stroke-linecap:butt;stroke-linejoin:miter;stroke-opacity:1"
     d="M 10.001939,42.260084 C 9.6591479,59.107782 131.20884,58.629116 139.60571,43.531833 140.18944,42.357 139.69221,41.777322 139.27519,41.05903 113.33379,15.956915 74.683041,17.934064 74.683041,17.934064 c 0,0 -40.013652,0.975367 -64.681102,24.32602 z"
     id="path24456"
     sodipodi:nodetypes="ccccc" /><path
     style="fill:none;fill-opacity:1;stroke:#bdbdbd;stroke-width:0.5;stroke-linecap:butt;stroke-linejoin:miter;stroke-dasharray:none;stroke-opacity:1"
     d="m 9.6244316,45.089232 c -0.2583214,23.979194 -1.0377238,22.526766 6.4798154,28.541902 2.761669,2.209745 7.112343,4.221705 13.135923,5.543535 12.362666,2.71289 30.102822,2.78348 45.673381,2.85538 22.878305,0.10565 51.033369,0.20967 61.667129,-8.700175 5.47776,-4.58972 3.7737,-6.932807 3.43478,-28.873484 0.005,-2.705101 -0.94532,-3.977456 -2.72148,-5.605612 C 122.40881,25.239343 99.195053,18.03384 74.805461,17.947534 50.258584,17.860672 24.140425,30.08648 11.612008,40.424509 10.433287,41.486455 9.6463958,43.044145 9.6244316,45.089232 Z"
     id="path24454"
     sodipodi:nodetypes="cssssccscc" /><g
     aria-label="TERRAFORM"
     id="text299"
     style="font-size:40px;line-height:1.25;font-family:'Small Dot Digital-7';-inkscape-font-specification:'Small Dot Digital-7';fill:#f4e6ca;fill-opacity:1;stroke:#f4e6ca;stroke-width:2.51339;stroke-dasharray:none;stroke-opacity:1;filter:url(#filter1806)"
     transform="matrix(0.36835505,0,0,0.36835505,73.669777,19.054687)"
     class="UnoptimicedTransforms"
     inkscape:path-effect="#path-effect6990"><path
       d="m -118.27603,108.69421 c 1.32227,0.14737 2.62131,0.29057 3.9469,0.43414 -0.0262,1.51064 -0.0303,3.00522 -0.0257,4.43629 -1.3157,-0.0706 -2.64619,-0.13904 -3.95793,-0.20217 6.3e-4,-1.49359 0.009,-3.06473 0.0368,-4.66826 z m 7.91036,25.54416 c -0.007,-3.8e-4 0.59598,0.033 0.5891,0.0327 0.16848,0.009 3.23147,0.18092 3.39995,0.19026 -0.004,1.46469 -4.2e-4,2.99848 0.0231,4.55736 -1.13501,-0.0967 -2.26107,-0.19439 -3.39507,-0.29449 0.0252,0.002 -0.61305,-0.0542 -0.5878,-0.052 -0.0276,-1.51388 -0.0328,-3.00549 -0.0293,-4.4338 z m 0.0547,-8.30033 c 0.001,2e-5 0.58758,0.01 0.58864,0.01 1.13078,0.0192 2.26686,0.0423 3.39791,0.0681 -0.005,1.39552 -0.0144,2.6916 -0.0255,4.13456 -1.13089,-0.0395 -2.26879,-0.0773 -3.3994,-0.11222 0,0 -0.58898,-0.018 -0.58899,-0.018 0.0118,-1.42124 0.0221,-2.6935 0.0274,-4.08209 z m -0.0342,-8.04961 c 0.001,3e-5 0.5875,0.0168 0.58858,0.0168 1.12987,0.0326 2.26687,0.0686 3.39707,0.10657 0.0146,1.3534 0.0263,2.62051 0.0328,3.979 -1.13087,-0.0248 -2.26676,-0.0466 -3.39738,-0.0644 0.001,2e-5 -0.58976,-0.009 -0.58855,-0.009 -0.007,-1.37236 -0.0183,-2.64268 -0.0325,-4.02902 z m 7.91279,-7.54283 c 0.28768,0.0279 3.5793,0.34345 3.866975,0.37135 9.77e-4,1e-4 0.111321,0.0106 0.112298,0.0107 -0.0028,1.24653 0.0076,2.52352 0.02127,3.77429 -9.9e-5,0 -0.112334,-0.007 -0.112433,-0.007 -0.09371,-0.006 -3.77925,-0.23154 -3.87296,-0.23735 -0.0126,-1.28817 -0.0212,-2.6103 -0.0151,-3.91204 z m -7.94002,-0.79663 c 3e-5,1e-5 0.58492,0.0608 0.58496,0.0608 1.12944,0.11703 2.24949,0.23107 3.38108,0.34445 -0.0114,1.36262 -0.006,2.73462 0.005,4.06437 0.13954,0.008 -3.53317,-0.20715 -3.39363,-0.19887 0.001,6e-5 -0.58897,-0.034 -0.58788,-0.034 -0.008,-1.37693 -0.009,-2.80556 0.0104,-4.23679 z"
       id="path405"
       style="fill:#f4e6ca;fill-opacity:1;stroke:#f4e6ca;stroke-width:2.51339;stroke-dasharray:none;stroke-opacity:1"
       inkscape:original-d="m -118.39494,110.01389 h 4 v 4 h -4 z m 8,24 h 4 v 4 h -4 z m 0,-8 h 4 v 4 h -4 z m 0,-8 h 4 v 4 h -4 z m 8,-8 h 3.999997 v 4 h -3.999997 z m -8,0 h 4 v 4 h -4 z" /><path
       d="m -90.48763,111.48053 c 1.330133,0.12334 2.655838,0.24474 3.986956,0.36481 0.0043,1.10398 0.01847,2.26659 0.03413,3.42062 -0.575474,-0.0369 -3.415606,-0.21982 -3.991081,-0.25676 -0.01511,-1.18394 -0.02808,-2.38092 -0.03001,-3.52867 z m 16.06877,24.7964 c 0.0048,2.6e-4 3.99682,0.21222 4.001653,0.21248 -0.0014,1.64997 0.0014,3.39807 0.01491,5.19045 -1.334777,-0.0842 -2.666092,-0.16959 -4.00057,-0.25685 -0.01469,-1.77592 -0.01765,-3.50908 -0.01599,-5.14608 z m -7.999326,-0.44105 c -0.05324,-0.003 4.05218,0.2261 3.998936,0.2231 -0.002,1.62277 0.0011,3.33957 0.01685,5.09753 -1.334148,-0.0906 -2.664567,-0.18269 -3.998249,-0.27676 -0.01677,-1.73814 -0.01984,-3.43683 -0.01753,-5.04387 z m -7.992974,-0.4581 c -0.286421,-0.0166 4.28206,0.24723 3.995639,0.23062 -0.0027,1.58954 3.65e-4,3.26805 0.01811,4.98417 -1.333418,-0.0975 -2.662257,-0.19648 -3.995103,-0.29731 -0.0187,-1.69153 -0.02173,-3.34749 -0.01865,-4.91748 z m 0.03967,-8.85798 c 0.132144,0.005 3.859835,0.15009 3.991978,0.1551 -0.0027,1.42378 -0.0094,2.78511 -0.01727,4.308 0.317971,0.0146 -4.311754,-0.19613 -3.993783,-0.18156 0.0086,-1.5106 0.0159,-2.86174 0.01907,-4.28154 z m 7.979423,-3.71338 c 0.241546,0.01 3.753342,0.15519 3.994889,0.1651 0.0067,1.30691 0.0087,2.61676 0.0068,4.02691 0.452804,0.0186 -4.448242,-0.18178 -3.995438,-0.1632 0.0023,-1.40744 4.87e-4,-2.71644 -0.0063,-4.02881 z m -8.017782,-4.14088 c 0.171827,0.008 3.819727,0.18043 3.991554,0.18842 0.01492,1.24489 0.02636,2.47221 0.03313,3.79072 0.156185,0.006 -4.147504,-0.16216 -3.991319,-0.15593 -0.0068,-1.32533 -0.01833,-2.56022 -0.03336,-3.82321 z m 15.886612,-5.79335 c 1.333042,0.10804 2.663473,0.21375 3.997167,0.31766 0.01149,0.95409 0.02891,2.02031 0.04539,3.06903 -0.02096,-0.001 -3.978446,-0.23912 -3.999412,-0.24037 -0.01644,-1.07459 -0.03315,-2.15665 -0.04314,-3.14632 z m -7.987592,-0.67263 c 1.331587,0.11627 2.66011,0.23027 3.992565,0.34249 0.0083,1.02559 0.02429,2.13029 0.04059,3.23019 -0.09153,-0.006 -3.903996,-0.2456 -3.995531,-0.2513 -0.01605,-1.12616 -0.03119,-2.25795 -0.03763,-3.32138 z"
       id="path407"
       style="fill:#f4e6ca;fill-opacity:1;stroke:#f4e6ca;stroke-width:2.51339;stroke-dasharray:none;stroke-opacity:1"
       inkscape:original-d="m -90.394913,110.01389 h 4 v 4 h -4 z m 16,24 h 4 v 4 h -4 z m -8,0 h 4 v 4 h -4 z m -8,0 h 4 v 4 h -4 z m 0,-8 h 4 v 4 h -4 z m 8,-4 h 4 v 4 h -4 z m -8,-4 h 4 v 4 h -4 z m 16,-8 h 4 v 4 h -4 z m -8,0 h 4 v 4 h -4 z" /><path
       d="m -62.526613,113.78911 c 1.334066,0.0959 2.667395,0.18951 4.00195,0.28087 0.01199,0.76635 0.03548,2.10247 0.04746,2.86882 -1.334771,-0.0715 -2.667877,-0.14456 -4.002222,-0.21901 -0.04228,-2.6322 -0.0049,-0.29848 -0.04719,-2.93068 z m 16.13155,23.82266 c 1.3356,0.0529 2.670576,0.10401 4.006408,0.15316 3.56e-4,1.71488 0.0033,3.53709 0.01247,5.41313 -1.335617,-0.0565 -2.670556,-0.11527 -4.005953,-0.17637 -0.0098,-1.86722 -0.01275,-3.68185 -0.01292,-5.38992 z m -16.017821,-0.71542 c 1.334649,0.0656 2.668233,0.1298 4.003182,0.19265 -5.35e-4,1.683 0.0024,3.46912 0.01396,5.30394 -1.33474,-0.0739 -2.668519,-0.14963 -4.00299,-0.22724 -0.01213,-1.82186 -0.01498,-3.59642 -0.01415,-5.26935 z m 8.01959,-8.94085 c -0.05134,-0.002 4.054085,0.14652 4.00275,0.14463 -1.2e-5,-0.0743 -0.0046,4.3735 -0.0046,4.44778 -0.03776,-0.001 -3.966021,-0.15289 -4.003778,-0.15431 1.41e-4,-0.0724 0.0057,-4.51046 0.0056,-4.4381 z m -8.002444,-0.30682 c -0.0999,-0.004 4.100593,0.15991 4.000693,0.15596 -2.18e-4,1.43619 -0.0032,2.85058 -0.0067,4.42726 -0.06341,-0.003 -3.938468,-0.16544 -4.001879,-0.16805 0.004,-1.57103 0.0074,-2.98005 0.0079,-4.41517 z m 15.999946,-3.41645 c 1.335082,0.0454 2.669176,0.0894 4.004557,0.13198 0.0057,1.2689 0.0083,2.58123 0.0089,4.00254 -1.33536,-0.0417 -2.669481,-0.0847 -4.004561,-0.12924 -4.38e-4,-1.42091 -0.0031,-2.73306 -0.0089,-4.00528 z m -16.037835,-4.23734 c -0.082,-0.004 4.08322,0.1828 4.001216,0.17908 0.01286,1.15119 0.02253,2.33576 0.02878,3.61673 -0.0923,-0.004 -3.908153,-0.15523 -4.000458,-0.15884 -0.0064,-1.28531 -0.01632,-2.47525 -0.02954,-3.63697 z m 15.97043,-2.45982 c 1.335745,0.0605 2.670823,0.11887 4.006916,0.17507 0.01514,0.96929 0.02866,1.98837 0.03984,3.1046 -1.335681,-0.0472 -2.670175,-0.0961 -4.005539,-0.14672 -0.01164,-1.12437 -0.02566,-2.15073 -0.04122,-3.13295 z m -8.058073,-3.19831 c 1.334962,0.0865 2.669371,0.17036 4.00479,0.2516 0.168279,9.67468 -0.12083,-6.9155 0.04745,2.75918 -1.335446,-0.0645 -2.669634,-0.1309 -4.004687,-0.1991 -0.01209,-0.75199 -0.03546,-2.05969 -0.04755,-2.81168 z"
       id="path409"
       style="fill:#f4e6ca;fill-opacity:1;stroke:#f4e6ca;stroke-width:2.51339;stroke-dasharray:none;stroke-opacity:1"
       inkscape:original-d="m -62.394882,110.01389 h 4 v 4 h -4 z m 16,24 h 4 v 4 h -4 z m -16,0 h 4 v 4 h -4 z m 8,-8 h 4 v 4 h -4 z m -8,0 h 4 v 4 h -4 z m 16,-4 h 4 v 4 h -4 z m -16,-4 h 4 v 4 h -4 z m 16,-4 h 4 v 4 h -4 z m -8,-4 h 4 v 4 h -4 z" /><path
       d="m -34.484615,115.42635 c 1.336922,0.0579 2.673483,0.11273 4.010728,0.16444 0.01547,0.78152 0.03044,1.62433 0.04409,2.56286 -1.336909,-0.0421 -2.673042,-0.0867 -4.009686,-0.13365 -0.0142,-0.94871 -0.02956,-1.79824 -0.04513,-2.59365 z m 16.146159,22.99926 c 1.336665,0.0237 2.672926,0.0452 4.009661,0.0645 -3.64e-4,-0.4844 0.0094,5.99636 0.009,5.51196 -1.336568,-0.0217 -2.672732,-0.0459 -4.009217,-0.0726 -0.0057,-1.91174 -0.0083,-3.76134 -0.0095,-5.50389 z m -16.03541,-0.38973 c 1.336181,0.0411 2.671871,0.08 4.00822,0.11689 8.14e-4,1.73125 0.0036,3.57096 0.01095,5.46821 -1.336138,-0.0418 -2.671732,-0.0862 -4.007703,-0.13295 -0.008,-1.891 -0.01079,-3.72572 -0.01147,-5.45215 z m 8.017074,-9.24734 c 1.336072,0.0282 2.671556,0.0546 4.007774,0.0791 -7e-5,-0.0832 7.25e-4,4.40647 7.95e-4,4.4897 -1.336388,-0.0256 -2.672119,-0.0532 -4.008377,-0.0828 2.9e-5,-0.0824 -1.63e-4,-4.56843 -1.92e-4,-4.48602 z m -8.014025,-0.19069 c 1.335738,0.0353 2.670791,0.0688 4.006731,0.10064 -5.9e-5,-0.0814 -5.16e-4,4.40024 -4.58e-4,4.48167 -1.336134,-0.0334 -2.671481,-0.0686 -4.007432,-0.10571 5.9e-5,-0.0803 0.0012,-4.55692 0.0012,-4.4766 z m 16.022059,-3.65246 c 1.336409,0.0212 2.672283,0.0404 4.008791,0.0577 0.004,1.25156 0.0063,2.56884 0.0076,3.98893 -1.336392,-0.0169 -2.672171,-0.0358 -4.008474,-0.0565 -0.0013,-1.4207 -0.0037,-2.73664 -0.0079,-3.99014 z m -16.053915,-3.86919 c 1.336144,0.0398 2.671653,0.0776 4.008032,0.11347 0.0097,1.09743 0.01692,2.25618 0.02192,3.51348 -1.336007,-0.0325 -2.671095,-0.0668 -4.006884,-0.10284 -0.0052,-1.25994 -0.01286,-2.42106 -0.02307,-3.52411 z m 16.006023,-2.6111 c 1.337457,0.027 2.674491,0.0515 4.01208,0.0734 0.0111,0.91233 0.02032,1.90062 0.02774,2.98055 -1.336945,-0.0189 -2.673281,-0.0399 -4.010116,-0.0632 -0.008,-1.08312 -0.01791,-2.07358 -0.0297,-2.99079 z m -8.065586,-2.72862 c 1.337516,0.0454 2.674697,0.0877 4.012468,0.12679 0.01504,0.75966 0.02905,1.59051 0.04148,2.51316 -1.337313,-0.0321 -2.673969,-0.0667 -4.011082,-0.10388 -0.01306,-0.92991 -0.02758,-1.76639 -0.04287,-2.53607 z"
       id="path411"
       style="fill:#f4e6ca;fill-opacity:1;stroke:#f4e6ca;stroke-width:2.51339;stroke-dasharray:none;stroke-opacity:1"
       inkscape:original-d="m -34.394852,110.01389 h 4 v 4 h -4 z m 16,24 h 4 v 4 h -4 z m -16,0 h 4 v 4 h -4 z m 8,-8 h 4 v 4 h -4 z m -8,0 h 4 v 4 h -4 z m 16,-4 h 4 v 4 h -4 z m -16,-4 h 4 v 4 h -4 z m 16,-4 h 4 v 4 h -4 z m -8,-4 h 4 v 4 h -4 z" /><path
       d="m -2.3790396,116.21551 c 1.3384283,0.008 2.67653597,0.0134 4.0149844,0.0158 0.012173,0.7313 0.022083,1.54773 0.030188,2.44961 -1.33772497,-0.002 -2.6750706,-0.006 -4.0128065,-0.0133 -0.00888,-0.90297 -0.019573,-1.71942 -0.032366,-2.45211 z m 12.1092457,22.3878 c 1.3366699,-0.006 2.6729619,-0.015 4.0096029,-0.0258 0.0011,0.78883 0.0067,4.73463 0.0077,5.52346 -1.336643,0.012 -2.672987,0.0216 -4.0096488,0.0287 -1.084e-4,-0.0705 -0.00759,-5.45586 -0.0077,-5.52641 z m -16.0392073,-0.0238 c 1.3367747,0.0105 2.673181,0.0188 4.0099494,0.025 -4.087e-4,-0.42335 0.00839,5.94936 0.00798,5.52601 -1.3366637,-0.007 -2.6730136,-0.0163 -4.0096622,-0.0281 -7.298e-4,-0.32804 -0.00754,-5.19489 -0.00826,-5.52293 z m 16.0290301,-9.48853 c 1.3363261,-0.006 2.6721811,-0.0134 4.0084741,-0.0229 -0.005,-4.59748 0.01,9.09623 0.005,4.49876 -1.336421,0.01 -2.672441,0.0178 -4.0088949,0.0237 -0.00287,-2.81046 -0.00168,-1.68918 -0.00455,-4.49964 z m -8.0171566,0.0122 c 0.00119,0 1.7101653,0.001 1.7113563,0.001 2.93e-5,0 1.8844428,-0.001 1.8844134,-0.001 -5.13e-5,0 0.4129049,-5.6e-4 0.4128537,-5.6e-4 6.439e-4,0.61024 0.00349,3.88978 0.00413,4.50002 -5.95e-5,0 -0.4128377,5.8e-4 -0.4128972,5.8e-4 2.76e-5,0 -1.884584,0.001 -1.8846116,0.001 0.00127,0 -1.7128056,-0.001 -1.7115341,-0.001 0.00142,1.9267 -0.00513,-6.42667 -0.00371,-4.49997 z m -8.0176986,-0.0327 c 1.3364443,0.009 2.6724252,0.0166 4.0088699,0.022 4.635e-4,0.45357 0.00282,4.04591 0.00328,4.49948 -1.3365757,-0.006 -2.6727323,-0.0133 -4.0093141,-0.0229 5.453e-4,1.21363 -0.00339,-5.71217 -0.00284,-4.49855 z m 16.0211671,-7.44195 c 1.3369442,-0.006 2.6734342,-0.015 4.0103532,-0.0256 4.74e-4,0.16687 0.0065,3.31057 0.007,3.47743 -1.33644,0.01 -2.672432,0.0175 -4.0089026,0.0234 3.388e-4,0.19876 -0.00879,-3.674 -0.00845,-3.47525 z m -16.0421657,-0.0221 c 1.3370341,0.0102 2.6736186,0.0184 4.0106645,0.0244 0.00558,1.07421 0.00967,2.22997 0.012722,3.4748 -1.3365825,-0.006 -2.6726854,-0.013 -4.0092614,-0.0224 -0.00335,-1.24614 -0.00792,-2.40069 -0.014125,-3.47674 z m 11.9867579,-5.3766 c 1.3384359,-0.003 2.6765615,-0.009 4.0150269,-0.0185 0.010737,0.73199 0.01897,1.55111 0.025449,2.45324 -1.3376711,0.007 -2.674958,0.0125 -4.0126165,0.0152 -0.0073,-0.9016 -0.016385,-1.7189 -0.02786,-2.44996 z"
       id="path413"
       style="fill:#f4e6ca;fill-opacity:1;stroke:#f4e6ca;stroke-width:2.51339;stroke-dasharray:none;stroke-opacity:1"
       inkscape:original-d="m -2.3948212,110.01389 h 4 v 4 h -4 z m 12,24 h 4.0000002 v 4 H 9.6051788 Z m -16,0 h 4 v 4 h -4 z m 16,-8 h 4.0000002 v 4 H 9.6051788 Z m -8,0 h 4 v 4 h -4 z m -8,0 h 4 v 4 h -4 z m 16,-8 h 4.0000002 v 4 H 9.6051788 Z m -16,0 h 4 v 4 h -4 z m 12,-8 h 4 v 4 h -4 z" /><path
       d="m 21.710876,116.05124 c 1.338367,-0.0266 2.676294,-0.0562 4.014554,-0.0887 0.0076,0.74725 0.01234,1.58385 0.01546,2.4961 -1.33744,0.0269 -2.674475,0.0513 -4.012025,0.0734 -0.004,-0.90848 -0.0096,-1.73911 -0.01799,-2.48076 z m 0.04773,22.43566 c 1.336536,-0.0195 2.672589,-0.0412 4.009027,-0.065 -0.0018,-1.05204 0.0099,6.55615 0.0081,5.50412 -1.336471,0.027 -2.67262,0.0514 -4.009177,0.0733 -7.01e-4,-0.58274 -0.0072,-4.92967 -0.0079,-5.51241 z m -0.01361,-9.49853 c 1.336183,-0.0171 2.671765,-0.036 4.007841,-0.0568 7.9e-5,0.0697 0.0062,4.42314 0.0063,4.49288 -1.336206,0.0217 -2.671964,0.0415 -4.008275,0.0593 -3.2e-5,-0.0223 -0.0058,-4.47308 -0.0058,-4.49543 z m 8.012237,-4.11656 c 1.336116,-0.0249 2.671513,-0.0517 4.007471,-0.0803 -2.4e-5,-0.13317 0.0027,4.12646 0.0027,3.9933 -1.335819,0.0281 -2.671083,0.0544 -4.007056,0.0789 -2.06e-4,-0.18093 -0.0029,-3.81089 -0.0031,-3.99183 z m -8.020255,-3.35774 c 1.336808,-0.019 2.673039,-0.0401 4.009737,-0.0633 5.32e-4,0.51654 0.0021,2.97374 0.0026,3.49028 -1.336222,0.0212 -2.671942,0.0405 -4.008273,0.0579 8.47e-4,0.9 -0.0049,-4.38493 -0.0041,-3.48493 z m 16.029498,-5.92339 c 1.337777,-0.05 2.674956,-0.10286 4.0125,-0.15852 0.0045,0.78225 0.0056,1.65406 0.0054,2.5901 -1.336762,0.0456 -2.673042,0.0889 -4.010025,0.12999 -6.04e-4,-0.92875 -0.0026,-1.79 -0.0079,-2.56157 z m -8.026867,0.26543 c 1.338134,-0.0384 2.675753,-0.0798 4.013715,-0.12401 0.0061,0.76218 0.009,1.61406 0.0104,2.53643 -1.337153,0.0364 -2.673871,0.0705 -4.011191,0.10221 -0.0023,-0.91688 -0.0061,-1.76055 -0.01293,-2.51463 z"
       id="path415"
       style="fill:#f4e6ca;fill-opacity:1;stroke:#f4e6ca;stroke-width:2.51339;stroke-dasharray:none;stroke-opacity:1"
       inkscape:original-d="m 21.605209,110.01389 h 4 v 4 h -4 z m 0,24 h 4 v 4 h -4 z m 0,-8 h 4 v 4 h -4 z m 8,-4 h 4 v 4 h -4 z m -8,-4 h 4 v 4 h -4 z m 16,-8 h 4 v 4 h -4 z m -8,0 h 4 v 4 h -4 z" /><path
       d="m 57.820859,114.63618 c 1.336436,-0.0764 2.671981,-0.15522 4.008066,-0.23623 9.37e-4,0.85645 -0.0021,1.79915 -0.0061,2.78591 -1.33546,0.0649 -2.670114,0.1282 -4.005896,0.18979 0.0033,-0.97464 0.0056,-1.90073 0.004,-2.73947 z m 0.0019,22.8093 c 1.335076,-0.0562 2.669116,-0.114 4.00393,-0.17342 0.0053,1.68366 0.01,3.4897 0.0113,5.3257 -1.334919,0.0701 -2.669287,0.13807 -4.004455,0.2039 -0.0013,-1.84726 -0.0058,-3.66416 -0.01078,-5.35618 z m 7.989807,-5.20738 c 0.06342,-0.003 3.93788,-0.16304 4.001304,-0.16562 0.0063,1.74838 0.01195,3.07735 0.01824,4.82573 0.04432,-0.002 -4.046613,0.19329 -4.002295,0.19113 -0.005,-1.49822 -0.01225,-3.35302 -0.01725,-4.85124 z m -16.013422,0.59155 c 1.335262,-0.0436 2.669501,-0.0888 4.00452,-0.13544 0.005,1.77932 0.0094,3.13525 0.0144,4.91456 -1.335268,0.0527 -2.669923,0.10352 -4.005426,0.15248 -0.004,-1.55675 -0.0095,-3.37484 -0.01349,-4.9316 z m 16.002025,-9.02297 c 0.08989,-0.003 3.911021,-0.15134 4.000908,-0.15477 -0.0022,1.28453 -0.0023,2.59411 -1.78e-4,4.00989 0.0977,-0.004 -4.098395,0.15677 -4.000695,0.15299 -0.0021,-1.41794 -0.0021,-2.72648 -3.5e-5,-4.00811 z M 49.7889,124.36696 c 1.335248,-0.0417 2.669318,-0.0848 4.004309,-0.12924 -0.0012,1.27437 -0.001,2.57876 8.45e-4,4.00233 -1.334881,0.0438 -2.668855,0.0863 -4.003986,0.1273 -0.0018,-1.42531 -0.0021,-2.72782 -0.0012,-4.00039 z m 16.038791,-7.38036 c 0.04999,-0.003 3.953897,-0.20508 4.003885,-0.20762 -0.01673,3.12331 -7e-4,0.12657 -0.01743,3.24988 0.08143,-0.004 -4.083481,0.17605 -4.002046,0.17249 0.0032,-0.7498 0.01234,-2.46495 0.01559,-3.21475 z m -16.025369,0.73644 c 1.336309,-0.0541 2.671707,-0.11009 4.007728,-0.16804 -0.0022,0.80256 -0.0075,2.32122 -0.0096,3.12378 -1.335388,0.049 -2.669969,0.0965 -4.005627,0.14245 0.0059,-2.45966 0.0016,-0.63854 0.0075,-3.09819 z"
       id="path417"
       style="fill:#f4e6ca;fill-opacity:1;stroke:#f4e6ca;stroke-width:2.51339;stroke-dasharray:none;stroke-opacity:1"
       inkscape:original-d="m 57.60524,110.01389 h 4 v 4 h -4 z m 0,24 h 4 v 4 h -4 z m 8,-4 h 4 v 4 h -4 z m -16,0 h 4 v 4 h -4 z m 16,-8 h 4 v 4 h -4 z m -16,0 h 4 v 4 h -4 z m 16,-8 h 4 v 4 h -4 z m -16,0 h 4 v 4 h -4 z" /><path
       d="m 77.850015,113.33402 c 1.335394,-0.0957 2.667331,-0.19262 4.002276,-0.29138 -0.0016,0.96821 -0.0079,2.01207 -0.01514,3.07552 0.01789,-0.001 -4.01875,0.2265 -4.000857,0.22548 0.0067,-1.04581 0.01245,-2.06706 0.01372,-3.00962 z m 15.976377,22.2905 c 0.206742,-0.0117 3.787871,-0.21582 3.994613,-0.22753 0.0079,1.55888 0.01479,3.21192 0.01626,4.881 -1.332783,0.10107 -2.661545,0.20028 -3.994899,0.29811 -0.0015,-1.69571 -0.0083,-3.37281 -0.01598,-4.95158 z m -15.992105,0.87045 c -0.004,2e-4 4.003861,-0.21034 3.999894,-0.21014 0.0069,1.62744 0.01287,3.36351 0.01422,5.12421 -1.334399,0.0875 -2.665714,0.17313 -4.000424,0.25749 -0.0014,-1.77843 -0.0071,-3.53085 -0.01369,-5.17156 z m 7.96178,-9.47003 c -0.453886,0.0182 4.449784,-0.17799 3.995898,-0.15977 0.0027,1.40829 0.008,2.81027 0.01518,4.32555 1.467373,-0.0663 -5.463878,0.24669 -3.996505,0.18038 -0.0069,-1.52575 -0.01201,-2.9342 -0.01457,-4.34616 z m -7.99528,0.32105 c 0.264972,-0.0106 3.733239,-0.14977 3.998211,-0.16037 0.0024,1.41522 0.0074,2.82948 0.01391,4.3647 0.07441,-0.003 -4.073289,0.18045 -3.998881,0.17713 -0.0062,-1.54378 -0.0109,-2.96341 -0.01324,-4.38146 z m 15.98672,-4.6546 c -0.156825,0.006 4.150485,-0.15872 3.99366,-0.15262 -0.0033,1.31113 -0.0036,2.62323 -7.89e-4,4.01659 -0.132891,0.005 -3.860776,0.14761 -3.993667,0.15259 -0.0027,-1.39772 -0.0025,-2.71 7.96e-4,-4.01656 z m -15.972053,-3.02027 c 0.110132,-0.005 3.889184,-0.17778 3.999316,-0.18279 -0.0069,1.18832 -0.01228,2.38731 -0.01514,3.68296 0.728982,-0.0295 -4.727314,0.19118 -3.998332,0.16166 0.0027,-1.29201 0.0077,-2.48405 0.01416,-3.66183 z m 16.015373,-4.25354 c 0.65431,-0.0389 3.340319,-0.1991 3.994629,-0.23802 -0.04402,5.87489 0.0175,-2.29888 -0.02652,3.57601 -0.169939,0.008 -3.824108,0.17285 -3.994048,0.18043 0.0042,-0.64648 0.02173,-2.87194 0.02594,-3.51842 z m -7.97775,-2.67571 c 1.334585,-0.10193 2.665077,-0.20514 3.999043,-0.31016 -0.0022,1.02563 -0.0095,2.11962 -0.01759,3.22257 0.107529,-0.006 -4.10545,0.24021 -3.997921,0.23388 0.0077,-1.08243 0.01453,-2.15048 0.01646,-3.14629 z"
       id="path419"
       style="fill:#f4e6ca;fill-opacity:1;stroke:#f4e6ca;stroke-width:2.51339;stroke-dasharray:none;stroke-opacity:1"
       inkscape:original-d="m 77.60527,110.01389 h 4 v 4 h -4 z m 16,24 h 4 v 4 h -4 z m -16,0 h 4 v 4 h -4 z m 8,-8 h 4 v 4 h -4 z m -8,0 h 4 v 4 h -4 z m 16,-4 h 4 v 4 h -4 z m -16,-4 h 4 v 4 h -4 z m 16,-4 h 4 v 4 h -4 z m -8,-4 h 4 v 4 h -4 z" /><path
       d="m 105.72264,111.12108 c 3.35356,-0.28507 0.63602,-0.054 3.98958,-0.33906 -0.004,1.21457 -0.0115,2.4733 -0.02,3.7061 0.21406,-0.012 -4.20234,0.23835 -3.98828,0.22635 0.009,-1.2033 0.0163,-2.42216 0.0187,-3.59339 z m 16.03138,22.94151 c -0.22953,0.0121 4.19848,-0.21881 3.96895,-0.20673 2.2e-4,-1.85536 -6.8e-4,5.88907 -4.5e-4,4.03371 -1.32545,0.141 -2.63536,0.27191 -3.96557,0.39858 0.003,-1.42203 8.4e-4,-2.84893 -0.003,-4.22556 z m -15.94899,0.87804 c 0.13466,-0.008 3.85367,-0.21665 3.98833,-0.22425 0.008,1.4838 0.015,3.0484 0.0176,4.61631 -1.33518,0.10974 -2.65325,0.21615 -3.9892,0.32279 -0.002,-1.60602 -0.009,-3.20291 -0.0167,-4.71485 z m 15.92482,-9.02719 c 1.32613,-0.0118 2.66521,-0.0172 3.99382,-0.0138 -1e-5,0.10853 -2.6e-4,3.86444 -2.6e-4,3.97298 -1.32137,0.0204 -2.66163,0.0477 -3.98323,0.0791 -0.005,-1.38094 -0.008,-2.67468 -0.0103,-4.03828 z m -15.96558,0.36169 c 1.32516,-0.0425 2.66418,-0.0831 3.99006,-0.12077 0.003,1.38042 0.008,2.739 0.0153,4.18067 -1.32399,0.0502 -2.66597,0.10286 -3.9892,0.15638 -0.008,-1.46058 -0.0133,-2.82798 -0.0161,-4.21628 z m 15.97674,-8.38138 c 1.32377,-0.029 2.65888,-0.0531 3.98238,-0.07 -10e-6,-0.17913 2.9e-4,4.25211 2.7e-4,4.07299 -1.32899,-0.005 -2.6669,-3.3e-4 -3.99348,0.0104 4e-4,-0.25714 0.0104,-3.75626 0.0108,-4.0134 z m -7.97857,0.22628 c 1.02682,-0.0343 2.06008,-0.0673 3.08696,-0.0981 -0.002,7e-5 0.90698,-0.0267 0.90473,-0.0267 -0.007,1.33755 -0.0121,2.61519 -0.0149,3.96235 -0.003,5e-5 -0.90209,0.016 -0.90487,0.016 -1.0278,0.019 -2.06005,0.0407 -3.08774,0.0646 0.003,-1.33503 0.009,-2.60858 0.0158,-3.9182 z m -7.97988,0.29441 c 1.32346,-0.053 2.66486,-0.10469 3.9891,-0.15365 -0.008,1.28847 -0.0136,2.55224 -0.0167,3.87986 -1.32584,0.037 -2.66489,0.0772 -3.99,0.11922 0.003,-1.32312 0.009,-2.5738 0.0176,-3.84543 z m 15.97796,-8.71806 c 1.32962,-0.12805 2.63856,-0.25704 3.9655,-0.39021 2e-5,0.41764 3.7e-4,3.91645 4e-4,4.33409 -1.31319,0.0618 -2.65154,0.12804 -3.96808,0.1952 0.004,-1.35449 0.006,-2.75177 0.002,-4.13908 z"
       id="path421"
       style="fill:#f4e6ca;fill-opacity:1;stroke:#f4e6ca;stroke-width:2.51339;stroke-dasharray:none;stroke-opacity:1"
       sodipodi:nodetypes="ccccccccccccccccccccccccccccccccccccccccccccc"
       inkscape:original-d="m 105.49996,110.01389 h 4 v 4 h -4 z m 16.10534,24 h 4 v 4 h -4 z m -16,0 h 4 v 4 h -4 z m 16,-8 h 4 v 4 h -4 z m -16,0 h 4 v 4 h -4 z m 16,-8 h 4 v 4 h -4 z m -8,0 h 4 v 4 h -4 z m -8,0 h 4 v 4 h -4 z m 16.00348,-8 h 4 v 4 h -4 z" /></g><g
     aria-label="provider"
     id="text6994"
     style="font-size:4.09145px;line-height:1.25;font-family:'Small Dot Digital-7';-inkscape-font-specification:'Small Dot Digital-7';fill:#888888;stroke-width:0.30686"
     inkscape:path-effect="#path-effect7830"
     class="UnoptimicedTransforms"
     transform="matrix(1.1386333,0,0,1.1386333,-10.423878,-39.48878)"><path
       d="m 68.289815,104.74273 c 0.163617,0.004 0.337581,-0.0442 0.458962,-0.0986 -0.01326,-0.0431 -0.02633,-0.0863 -0.03921,-0.12933 -0.03655,0.007 -0.146804,0.0208 -0.22023,0.019 -0.06127,-0.002 -0.0822,-0.0308 -0.08277,-0.0926 -6.32e-4,-0.0683 0.03864,-0.33401 0.09114,-0.65229 0.178467,0.0806 0.328713,0.0921 0.438911,0.0944 0.578792,0.0126 0.912969,-0.65073 0.911016,-1.22109 -0.0014,-0.40599 -0.105574,-0.70791 -0.525101,-0.72707 -0.27129,-0.0124 -0.481954,0.22788 -0.603918,0.41781 0.01238,-0.11615 0.02537,-0.23824 0.03797,-0.35304 0.0017,0.003 -0.04287,-0.0806 -0.04113,-0.0773 -0.0326,-0.009 -0.06927,-0.0144 -0.109962,-0.0157 -0.214142,-0.007 -0.428031,0.0856 -0.495032,0.11439 0.0021,0.0105 0.02367,0.12079 0.02573,0.13134 0.04863,-0.004 0.08923,-0.007 0.125746,-0.006 0.08932,0.001 0.138379,0.0347 0.139035,0.10385 5.41e-4,0.057 -0.350216,2.17593 -0.347876,2.32325 0.0019,0.1187 0.06112,0.16495 0.236707,0.16952 0,0 -5e-6,-1.3e-4 -5e-6,-1.3e-4 z m 0.554316,-1.04697 c -0.166889,-0.003 -0.30445,-0.0585 -0.295506,-0.16502 0.07606,-0.812 0.409459,-1.40496 0.66881,-1.39539 0.195376,0.007 0.26639,0.23041 0.267504,0.51542 0.0017,0.43806 -0.261401,1.05203 -0.640808,1.04499 z"
       style="font-style:italic;font-family:Caladea;-inkscape-font-specification:'Caladea Italic'"
       id="path7813"
       inkscape:original-d="m 68.361616,104.84003 c 0.163658,0 0.33959,-0.0532 0.462334,-0.11047 l -0.03682,-0.12684 c -0.03682,0.008 -0.147293,0.0245 -0.220939,0.0245 -0.06137,0 -0.08183,-0.0286 -0.08183,-0.09 0,-0.0614 0.04091,-0.33959 0.09001,-0.65054 0.180024,0.0777 0.331408,0.0859 0.441877,0.0859 0.580986,0 0.912393,-0.66281 0.912393,-1.2438 0,-0.41733 -0.102286,-0.73237 -0.523706,-0.73237 -0.270035,0 -0.486882,0.25776 -0.609626,0.45006 l 0.04091,-0.36005 -0.04091,-0.0777 c -0.03273,-0.008 -0.06955,-0.0123 -0.110469,-0.0123 -0.212755,0 -0.433693,0.0982 -0.499157,0.12683 l 0.02455,0.13093 c 0.0491,-0.004 0.09001,-0.008 0.126835,-0.008 0.09001,0 0.139109,0.0327 0.139109,0.10228 0,0.0573 -0.347773,2.18075 -0.347773,2.32804 0,0.11865 0.05728,0.16366 0.233213,0.16366 z m 0.560528,-1.0515 c -0.167749,0 -0.306858,-0.0532 -0.298676,-0.15957 0.06955,-0.80193 0.417328,-1.41973 0.67509,-1.41973 0.196389,0 0.265944,0.22912 0.265944,0.51961 0,0.44597 -0.261853,1.05969 -0.642358,1.05969 z" /><path
       d="m 70.202097,103.88997 c 0.0187,6.1e-4 0.341361,0.0114 0.360063,0.012 0.02447,-0.19035 0.05363,-0.41134 0.07829,-0.59782 0.09857,-0.7327 0.369547,-1.03073 0.530395,-1.0232 0.05327,0.002 0.07795,0.0449 0.07812,0.10954 1.28e-4,0.0495 -0.01202,0.10267 -0.03241,0.13656 0.01233,0.0237 0.05345,0.068 0.135392,0.0713 0.184419,0.007 0.27843,-0.1242 0.278141,-0.26272 -2.96e-4,-0.14222 -0.11936,-0.28531 -0.303781,-0.29504 -0.217379,-0.0115 -0.401646,0.14465 -0.556154,0.43277 0.01993,-0.12772 0.04021,-0.2553 0.06043,-0.37781 -5.08e-4,-8.3e-4 -0.04457,-0.0721 -0.04508,-0.073 -0.03684,-0.009 -0.0696,-0.0149 -0.106438,-0.0169 -0.202588,-0.0111 -0.427573,0.0551 -0.523406,0.0894 -0.0048,-0.0284 0.02558,0.15225 0.02081,0.12388 0.04903,-0.002 0.08987,-0.003 0.126669,-0.002 0.08584,0.004 0.134978,0.0291 0.135291,0.11794 3.14e-4,0.0889 -0.224005,1.4595 -0.236318,1.55502 0,0 -3e-6,-2.5e-4 -3e-6,-2.5e-4 z"
       style="font-style:italic;font-family:Caladea;-inkscape-font-specification:'Caladea Italic'"
       id="path7815"
       inkscape:original-d="m 70.2846,103.944 h 0.360048 l 0.07774,-0.59326 c 0.09819,-0.73646 0.372322,-1.08014 0.531888,-1.08014 0.05319,0 0.07774,0.045 0.07774,0.11456 0,0.0532 -0.01228,0.11047 -0.03273,0.14729 0.01227,0.0246 0.05319,0.0696 0.135018,0.0696 0.184115,0 0.278219,-0.1432 0.278219,-0.29458 0,-0.15547 -0.118652,-0.31095 -0.302768,-0.31095 -0.216847,0 -0.400962,0.18821 -0.556437,0.49916 l 0.06137,-0.40915 -0.04501,-0.0777 c -0.03682,-0.008 -0.06955,-0.0123 -0.106378,-0.0123 -0.200481,0 -0.429602,0.0859 -0.523705,0.12683 l 0.02046,0.13093 c 0.0491,-0.004 0.09001,-0.008 0.126835,-0.008 0.08592,0 0.135018,0.0246 0.135018,0.11865 0,0.0941 -0.22503,1.4852 -0.237305,1.5793 z" /><path
       d="m 72.34224,103.98926 c 0.652752,0.0188 0.990079,-0.62538 0.989202,-1.23692 -5.93e-4,-0.41346 -0.231359,-0.6318 -0.671069,-0.64911 -0.653399,-0.0257 -0.987983,0.51641 -0.987773,1.15842 1.43e-4,0.44082 0.229753,0.71494 0.66964,0.72761 z m -3.38e-4,-0.20067 c -0.201362,-0.006 -0.287584,-0.20511 -0.287715,-0.48618 -2.82e-4,-0.60858 0.289495,-1.0394 0.60635,-1.02791 0.19316,0.007 0.28803,0.16948 0.288473,0.44517 9.16e-4,0.57051 -0.299032,1.07775 -0.607108,1.06892 z"
       style="font-style:italic;font-family:Caladea;-inkscape-font-specification:'Caladea Italic'"
       id="path7817"
       inkscape:original-d="m 72.420334,103.97264 c 0.650541,0 0.98604,-0.62599 0.98604,-1.27653 0,-0.44188 -0.229121,-0.69964 -0.666907,-0.69964 -0.65054,0 -0.986039,0.63008 -0.986039,1.27653 0,0.44188 0.229121,0.69964 0.666906,0.69964 z m 0,-0.19639 c -0.200481,0 -0.286401,-0.1923 -0.286401,-0.47461 0,-0.60553 0.290493,-1.10878 0.605534,-1.10878 0.192299,0 0.286402,0.18411 0.286402,0.4787 0,0.60963 -0.298676,1.10469 -0.605535,1.10469 z" /><path
       d="m 74.17166,104.02714 c 0.253041,-0.39904 0.507113,-0.79112 0.76029,-1.1593 0.213719,-0.31593 0.303845,-0.56482 0.320109,-0.64185 -0.01514,-0.0221 -0.03029,-0.044 -0.04544,-0.0657 -0.06174,-0.006 -0.119341,-0.01 -0.176948,-0.01 -0.160478,2.4e-4 -0.304403,0.0238 -0.440142,0.0542 0.0056,0.043 0.01116,0.0865 0.01672,0.13052 0.127566,-0.003 0.181146,0.0357 0.181289,0.13798 9.2e-5,0.0658 -0.0163,0.12473 -0.04913,0.21506 -0.04722,0.12656 -0.32248,0.59403 -0.497191,0.86984 -0.06819,-0.50914 -0.13438,-0.97844 -0.203188,-1.40843 -0.0246,-0.004 -0.07417,-0.008 -0.1111,-0.009 -0.16546,-0.003 -0.393925,0.0711 -0.468812,0.0979 0.0083,0.038 0.01657,0.0764 0.02486,0.11511 0.197359,0.0118 0.242894,0.0372 0.263571,0.17761 0.06915,0.46144 0.13409,0.94221 0.202977,1.46369 0.06591,0.0261 0.156242,0.0314 0.222124,0.0321 0,0 1e-5,-2e-4 1e-5,-2e-4 z"
       style="font-style:italic;font-family:Caladea;-inkscape-font-specification:'Caladea Italic'"
       id="path7819"
       inkscape:original-d="m 74.241026,103.97264 0.756918,-1.17425 c 0.212755,-0.33549 0.302767,-0.6219 0.319133,-0.71191 l -0.04501,-0.0777 c -0.06137,-0.008 -0.118652,-0.0123 -0.175932,-0.0123 -0.159567,0 -0.302768,0.0286 -0.437785,0.0655 l 0.01636,0.15139 c 0.126835,-0.004 0.180024,0.0409 0.180024,0.15547 0,0.0737 -0.01637,0.13911 -0.0491,0.23731 -0.05319,0.15547 -0.315042,0.61781 -0.495066,0.90421 l -0.200481,-1.50566 c -0.02455,-0.004 -0.07365,-0.008 -0.110469,-0.008 -0.163658,0 -0.392779,0.0941 -0.466425,0.12683 l 0.02455,0.13093 c 0.19639,0.008 0.241396,0.0368 0.261853,0.1923 l 0.200481,1.49747 c 0.06546,0.0245 0.155475,0.0286 0.220939,0.0286 z" /><path
       d="m 75.867982,101.96271 c 0.143902,-0.003 0.246117,-0.10624 0.244604,-0.22619 -0.0011,-0.0884 -0.06802,-0.14608 -0.191135,-0.14287 -0.143575,0.004 -0.244822,0.0979 -0.24373,0.2192 8.06e-4,0.0895 0.07511,0.15204 0.190261,0.14986 z m -0.199561,2.06764 c 0.172489,-0.001 0.390698,-0.15935 0.480944,-0.23963 -0.01368,-0.0443 -0.02738,-0.0885 -0.04108,-0.13243 -0.02051,0.0127 -0.139749,0.0805 -0.209592,0.0812 -0.06576,6.7e-4 -0.0781,-0.0243 -0.07811,-0.0904 -1.3e-5,-0.0827 0.22141,-1.34845 0.237629,-1.43321 -0.01651,-0.022 -0.03302,-0.0438 -0.04955,-0.0654 -0.03289,-0.006 -0.07408,-0.009 -0.111058,-0.008 -0.197267,0.003 -0.448159,0.0825 -0.526173,0.11471 0.0069,0.0375 0.01388,0.0754 0.0208,0.1137 0.04939,-0.004 0.09046,-0.008 0.127516,-0.008 0.08639,-8.1e-4 0.135797,0.027 0.135878,0.0964 1.01e-4,0.0857 -0.209246,1.26927 -0.209146,1.355 8e-6,0.15428 0.06163,0.21782 0.221933,0.21669 0,0 -2e-6,-1.7e-4 -2e-6,-1.7e-4 z"
       style="font-style:italic;font-family:Caladea;-inkscape-font-specification:'Caladea Italic'"
       id="path7821"
       inkscape:original-d="m 75.930793,101.77962 c 0.143201,0 0.245487,-0.12274 0.245487,-0.27822 0,-0.11456 -0.06546,-0.19639 -0.188206,-0.19639 -0.143201,0 -0.245487,0.12684 -0.245487,0.28231 0,0.11457 0.07365,0.1923 0.188206,0.1923 z m -0.200481,2.19302 c 0.171841,0 0.388688,-0.15138 0.4787,-0.22912 l -0.04091,-0.13093 c -0.02046,0.0123 -0.13911,0.0777 -0.208664,0.0777 -0.06546,0 -0.07774,-0.0246 -0.07774,-0.09 0,-0.0818 0.220938,-1.41564 0.237304,-1.51384 l -0.0491,-0.0777 c -0.03273,-0.008 -0.07365,-0.0123 -0.110469,-0.0123 -0.19639,0 -0.445968,0.09 -0.523706,0.12683 l 0.02046,0.13093 c 0.0491,-0.004 0.09001,-0.008 0.126835,-0.008 0.08592,0 0.135018,0.0327 0.135018,0.11047 0,0.0655 -0.208664,1.28471 -0.208664,1.40336 0,0.15139 0.06137,0.21276 0.220938,0.21276 z" /><path
       d="m 76.995094,104.01072 c 0.262423,-0.006 0.476523,-0.26076 0.603196,-0.45398 -0.02047,0.10809 -0.03278,0.18782 -0.03281,0.25064 -6.1e-5,0.12153 0.06949,0.18735 0.212966,0.18318 0.180158,-0.005 0.393788,-0.16799 0.483576,-0.25005 -0.01364,-0.0441 -0.02732,-0.0882 -0.04098,-0.13206 -0.02039,0.0131 -0.135167,0.0833 -0.217032,0.0858 -0.05326,0.002 -0.07784,-0.0185 -0.07785,-0.0559 -4e-6,-0.0187 0.09199,-0.60486 0.187771,-1.15315 0.09579,-0.5483 0.185643,-1.03942 0.195747,-1.10313 -0.0172,-0.0223 -0.03446,-0.0444 -0.05179,-0.0662 -0.04943,8.8e-4 -0.09422,0.001 -0.151715,0.006 -0.202054,0.0159 -0.414922,0.0624 -0.489763,0.0794 -0.0068,0.0405 -0.01376,0.0818 -0.0209,0.12361 1.65e-4,-1e-5 0.07363,-0.005 0.07379,-0.005 0.180272,-0.0113 0.25141,0.0315 0.244737,0.11844 -0.003,0.0548 -0.07649,0.4323 -0.0942,0.51602 -0.07835,-0.0329 -0.241755,-0.0646 -0.435008,-0.0568 -0.508123,0.0207 -0.91111,0.48992 -0.910967,1.2029 1.06e-4,0.52974 0.201132,0.71717 0.521232,0.7101 0,0 3e-6,-1.9e-4 3e-6,-1.9e-4 z m 0.106912,-0.22084 c -0.147718,0.003 -0.262638,-0.1407 -0.262692,-0.51276 -6.5e-5,-0.4408 0.254617,-1.00642 0.640253,-1.02132 0.119127,-0.005 0.225497,0.0348 0.307644,0.0798 -0.02341,0.13196 -0.04641,0.26381 -0.06994,0.40163 -0.104097,0.61602 -0.400385,1.0476 -0.615271,1.05262 0,0 5e-6,0 5e-6,0 z"
       style="font-style:italic;font-family:Caladea;-inkscape-font-specification:'Caladea Italic'"
       id="path7823"
       inkscape:original-d="m 77.051853,103.97264 c 0.261853,0 0.474608,-0.2414 0.601443,-0.4296 -0.02046,0.10638 -0.03273,0.18411 -0.03273,0.24549 0,0.11865 0.06955,0.18411 0.212755,0.18411 0.180024,0 0.392779,-0.15138 0.482791,-0.22912 l -0.04091,-0.13093 c -0.02046,0.0123 -0.135018,0.0777 -0.216847,0.0777 -0.05319,0 -0.07774,-0.0205 -0.07774,-0.0573 0,-0.0368 0.368231,-2.27894 0.392779,-2.4385 l -0.0491,-0.09 c -0.0491,-0.004 -0.0941,-0.008 -0.151384,-0.008 -0.204572,0 -0.413236,0.0409 -0.490974,0.0573 l -0.02455,0.15957 h 0.07365 c 0.180024,0 0.249578,0.0614 0.241395,0.16775 -0.0041,0.0695 -0.08183,0.51552 -0.0982,0.60144 -0.07774,-0.0409 -0.241395,-0.0859 -0.433693,-0.0859 -0.50734,0 -0.908302,0.54416 -0.908302,1.26426 0,0.53598 0.200481,0.71191 0.519614,0.71191 z m 0.106378,-0.21276 c -0.147292,0 -0.261853,-0.1391 -0.261853,-0.51552 0,-0.44597 0.25367,-1.06377 0.638266,-1.06377 0.118652,0 0.22503,0.0491 0.306859,0.10228 l -0.06956,0.4296 c -0.102286,0.63827 -0.400962,1.04741 -0.613717,1.04741 z" /><path
       d="m 79.227418,103.94275 c 0.326712,-0.0115 0.613047,-0.18973 0.759044,-0.34349 -0.0395,-0.0499 -0.07916,-0.0999 -0.118645,-0.14962 -0.113414,0.09 -0.346838,0.26494 -0.558774,0.27224 -0.212304,0.007 -0.36406,-0.15162 -0.364217,-0.51245 10e-7,9.5e-4 -2.3e-5,-0.0945 -2.2e-5,-0.0936 0.690246,-0.0244 1.191589,-0.35968 1.193,-0.74356 7.84e-4,-0.21319 -0.166069,-0.40502 -0.558241,-0.38411 -0.59117,0.0315 -1.007135,0.51262 -1.006762,1.29539 1.52e-4,0.31857 0.164281,0.67646 0.654617,0.6592 z m -0.2621,-1.02532 c 0.06555,-0.42204 0.275691,-0.73808 0.585564,-0.753 0.155192,-0.007 0.228402,0.0969 0.228039,0.21444 -9e-4,0.29099 -0.323477,0.52055 -0.813603,0.53856 z"
       style="font-style:italic;font-family:Caladea;-inkscape-font-specification:'Caladea Italic'"
       id="path7825"
       inkscape:original-d="m 79.281695,103.97264 c 0.327316,0 0.613718,-0.16366 0.76101,-0.31095 l -0.118652,-0.15138 c -0.11456,0.0859 -0.347773,0.24957 -0.560529,0.24957 -0.212755,0 -0.364139,-0.15956 -0.364139,-0.51961 v -0.0941 c 0.691455,0 1.194704,-0.31914 1.194704,-0.71601 0,-0.22093 -0.16775,-0.43369 -0.560529,-0.43369 -0.59326,0 -1.006497,0.51552 -1.006497,1.30517 0,0.31914 0.163658,0.671 0.654632,0.671 z m -0.261852,-1.02695 c 0.06546,-0.42961 0.274127,-0.76101 0.585077,-0.76101 0.155475,0 0.229121,0.11456 0.229121,0.2373 0,0.30277 -0.323224,0.52371 -0.814198,0.52371 z" /><path
       d="m 80.386851,103.87423 c 0.119559,-0.004 0.239248,-0.007 0.358728,-0.0104 0.02745,-0.22013 0.04753,-0.38375 0.07512,-0.6014 0.09523,-0.73791 0.374635,-1.08111 0.531438,-1.08471 0.0529,-0.001 0.07702,0.0428 0.07659,0.11171 -3.31e-4,0.0527 -0.01288,0.10976 -0.03341,0.14663 0.01207,0.0242 0.05248,0.0683 0.133774,0.0673 0.182806,-0.002 0.277239,-0.14503 0.278344,-0.29667 0.0011,-0.156 -0.115807,-0.30843 -0.299185,-0.30335 -0.214947,0.006 -0.400596,0.19723 -0.556117,0.50588 0.01532,-0.0982 0.04772,-0.3039 0.06304,-0.40207 -0.01484,-0.0247 -0.02969,-0.0493 -0.04456,-0.0738 -0.03663,-0.006 -0.06924,-0.009 -0.105909,-0.008 -0.198941,0.008 -0.428881,0.10105 -0.52205,0.14389 0.0067,0.0413 0.01335,0.0828 0.01999,0.12447 0.0489,-0.006 0.08973,-0.0113 0.126376,-0.0127 0.08558,-0.003 0.134374,0.0185 0.133959,0.10994 -4.15e-4,0.0915 -0.224113,1.48682 -0.236131,1.58317 0,0 -3e-6,-2.5e-4 -3e-6,-2.5e-4 z"
       style="font-style:italic;font-family:Caladea;-inkscape-font-specification:'Caladea Italic'"
       id="path7827"
       inkscape:original-d="m 80.44367,103.944 h 0.360048 l 0.07774,-0.59326 c 0.09819,-0.73646 0.372322,-1.08014 0.531888,-1.08014 0.05319,0 0.07774,0.045 0.07774,0.11456 0,0.0532 -0.01228,0.11047 -0.03273,0.14729 0.01228,0.0246 0.05319,0.0696 0.135018,0.0696 0.184115,0 0.278219,-0.1432 0.278219,-0.29458 0,-0.15547 -0.118652,-0.31095 -0.302768,-0.31095 -0.216847,0 -0.400962,0.18821 -0.556437,0.49916 l 0.06137,-0.40915 -0.04501,-0.0777 c -0.03682,-0.008 -0.06955,-0.0123 -0.106378,-0.0123 -0.200481,0 -0.429602,0.0859 -0.523705,0.12683 l 0.02046,0.13093 c 0.0491,-0.004 0.09001,-0.008 0.126835,-0.008 0.08592,0 0.135018,0.0246 0.135018,0.11865 0,0.0941 -0.22503,1.4852 -0.237305,1.5793 z" /></g></svg>
